<svg width="720" height="216" viewBox="0 0 720 216" fill="none" xmlns="http://www.w3.org/2000/svg">
<path fill-rule="evenodd" clip-rule="evenodd" d="M135 74.5V85H149.5H164V74.5V64H149.5H135V74.5ZM0 82.85V91.717L7.509 93.002L15.018 94.286L14.759 145.371L14.5 196.455L7.25 197.849L0 199.244V207.622V216H29H58V207.573V199.145L50.5 197.935L43 196.726V176.863V157H68.034H93.068L92.784 146.25L92.5 135.5L67.75 135.233L43 134.965V115.483V96H66.5H90L90.011 100.75C90.017 103.362 90.301 107.188 90.642 109.25L91.262 113H102.152H113.043L112.772 93.75L112.5 74.5L56.25 74.242L0 73.983V82.85ZM243.176 111.15C239.691 112.488 235.804 115.199 231.926 118.994L226 124.792L225.989 121.646C225.983 119.916 225.699 116.813 225.358 114.75L224.738 111H203.869H183V119.433C183 128.873 182.253 128.02 192.264 130.005L198.027 131.147L197.764 163.714L197.5 196.281L191 197.891L184.5 199.5L184.21 207.75L183.919 216H211H238.081L237.79 207.813L237.5 199.625L232.621 198.383C229.937 197.7 227.334 196.734 226.837 196.237C226.304 195.704 226.255 183.718 226.717 167.024L227.5 138.715L231.046 135.847C239.355 129.129 252.321 129.847 258.406 137.361L261.5 141.182L261.794 168.972L262.088 196.763L256.294 198.174L250.5 199.586L250.21 207.793L249.919 216H277H304.081L303.79 207.797L303.5 199.595L296.826 198.174L290.152 196.754L289.759 166.627C289.336 134.191 289.215 130.185 284 122.5C283.41 120.272 281.656 118.678 281.656 118.678C282.516 117.818 273.647 112.299 268.715 110.624C261.918 108.317 249.906 108.564 243.176 111.15ZM120 119.429V127.858L125.25 128.878C128.137 129.438 131.4 130.039 132.5 130.212C134.447 130.519 134.507 131.401 134.763 163.648L135.027 196.769L128.513 197.997L122 199.226V207.613V216H149.5H177V207.613V199.226L170.5 198L164 196.774V153.887V111H142H120V119.429Z" fill="#ffff"/>
<path fill-rule="evenodd" clip-rule="evenodd" d="M340.75 0.607431L321.5 0.901431V26.6224V52.3444L347.5 26.3584C361.8 12.0664 373.5 0.257431 373.5 0.115431C373.5 -0.0255685 370.463 -0.0395685 366.75 0.0854315C363.037 0.210431 351.338 0.445431 340.75 0.607431ZM285.5 114.863L184 215.781L235.586 215.819C263.959 215.841 303.39 215.561 323.21 215.198L359.247 214.538L354.624 211.448C348.639 207.449 344.128 200.612 342.665 193.325C341.934 189.686 341.5 176.41 341.5 157.691V127.858H332H322.5V117.858V107.858H332H341.5V94.8584V81.8584H355.47H369.44L369.72 94.6084L370 107.358L378.75 107.647L387.5 107.936V60.8974C387.5 35.0264 387.387 13.8784 387.25 13.9014C387.113 13.9254 341.325 59.3584 285.5 114.863ZM598.5 69.2914C598.5 78.5854 598.168 78.1384 606 79.3924C614.344 80.7284 613.5 74.2074 613.5 137.317V193.641L607 194.933L600.5 196.225V204.541V212.858H627.5H654.5V204.606V196.353L648.25 194.856L642 193.358L641.734 164.929L641.468 136.501L644.154 133.697C648.142 129.535 654.291 127.53 661.479 128.05C668.307 128.544 671.852 130.619 675 135.963C676.843 139.091 677.025 141.487 677.32 166.456L677.641 193.555L671.57 194.843L665.5 196.131V204.495V212.858H692.5H719.5V204.518V196.178L712.5 194.927L705.5 193.676L705.483 167.517C705.464 139.102 704.598 131.897 700.164 123.227C696.96 116.964 691.309 111.549 685 108.695C681.027 106.897 678.152 106.425 671 106.395C659.999 106.35 655.075 108.309 646.999 115.947L641.5 121.148V91.0034V60.8584H620H598.5V69.2914ZM434.676 106.928C420.078 109.801 407.859 121.151 401.787 137.479C398.377 146.649 397.364 167.877 399.87 177.657C404.621 196.203 416.752 208.823 434.193 213.366C441.357 215.232 455.929 215.262 464.577 213.429C471.106 212.045 482.242 207.447 485.916 204.618C488.018 202.999 488.056 203.162 482.638 190.638L480.597 185.918L474.224 188.9C466.81 192.369 454.18 194.507 447.277 193.46C437.442 191.968 429.17 183.269 427.787 172.963L427.237 168.858H458.868H490.5V158.042C490.5 152.093 490.012 144.555 489.416 141.292C487.105 128.637 478.405 115.911 468.67 110.945C459.921 106.481 445.565 104.785 434.676 106.928ZM537.902 107.274C524.025 110.451 513.372 119.002 507.21 131.91C502.327 142.138 501.132 149.283 501.741 164.619C502.152 174.962 502.727 178.652 504.797 184.237C512.836 205.933 529.02 215.94 553.958 214.636C562.042 214.213 564.396 213.654 570.689 210.666C583.322 204.666 591.374 194.423 592.308 183.162L592.748 177.858H580.162H567.577L566.457 182.016C564.288 190.071 556.296 194.804 547.173 193.436C540.54 192.442 536.451 189.261 533.049 182.451C530.389 177.126 530.056 175.364 529.671 164.563C529.029 146.559 531.806 136.778 539.148 131.177C542.222 128.833 543.96 128.33 549.907 128.068C555.263 127.831 557.843 128.195 560.44 129.556C563.931 131.384 564.776 133.068 567.485 143.608L568.577 147.858H580.066H591.555L591.277 133.677L591 119.497L584.74 115.214C581.297 112.859 575.447 109.987 571.74 108.831C562.981 106.099 546.37 105.335 537.902 107.274ZM370.5 156.811C370.5 175.9 370.878 186.594 371.61 188.201C373.416 192.163 379.161 193.86 385.25 192.228L387.5 191.625V159.741V127.858H379H370.5V156.811ZM455.061 129.896C459.278 132.502 462.5 139.119 462.5 145.174V149.858H445C424.967 149.858 425.837 150.378 429.498 140.594C431.386 135.546 436.198 129.757 439.5 128.56C443.306 127.18 451.854 127.914 455.061 129.896Z" fill="#222529"/>
<path fill-rule="evenodd" clip-rule="evenodd" d="M135 74.5V85H149.5H164V74.5V64H149.5H135V74.5ZM0 82.85V91.717L7.509 93.002L15.018 94.286L14.759 145.371L14.5 196.455L7.25 197.849L0 199.244V207.622V216H29H58V207.573V199.145L50.5 197.935L43 196.726V176.863V157H68.034H93.068L92.784 146.25L92.5 135.5L67.75 135.233L43 134.965V115.483V96H66.5H90L90.011 100.75C90.017 103.362 90.301 107.188 90.642 109.25L91.262 113H102.152H113.043L112.772 93.75L112.5 74.5L56.25 74.242L0 73.983V82.85ZM243.176 111.15C239.691 112.488 235.804 115.199 231.926 118.994L226 124.792L225.989 121.646C225.983 119.916 225.699 116.813 225.358 114.75L224.738 111H203.869H183V119.433C183 128.873 182.253 128.02 192.264 130.005L198.027 131.147L197.764 163.714L197.5 196.281L191 197.891L184.5 199.5L184.21 207.75L183.919 216H211H238.081L237.79 207.813L237.5 199.625L232.621 198.383C229.937 197.7 227.334 196.734 226.837 196.237C226.304 195.704 226.255 183.718 226.717 167.024L227.5 138.715L231.046 135.847C239.355 129.129 252.321 129.847 258.406 137.361L261.5 141.182L261.794 168.972L262.088 196.763L256.294 198.174L250.5 199.586L250.21 207.793L249.919 216H277H304.081L303.79 207.797L303.5 199.595L296.826 198.174L290.152 196.754L289.759 166.627C289.336 134.191 289.215 130.185 284 122.5C283.41 120.272 281.656 118.678 281.656 118.678C282.516 117.818 273.647 112.299 268.715 110.624C261.918 108.317 249.906 108.564 243.176 111.15ZM120 119.429V127.858L125.25 128.878C128.137 129.438 131.4 130.039 132.5 130.212C134.447 130.519 134.507 131.401 134.763 163.648L135.027 196.769L128.513 197.997L122 199.226V207.613V216H149.5H177V207.613V199.226L170.5 198L164 196.774V153.887V111H142H120V119.429Z" fill="#fff" fill-opacity="0.5"/>
</svg>
